Normalized EMG Linear Envelopes
nRows=129
nColumns=4

endheader
time	 med_gas_r	  soleus_r	 tib_ant_r	
2.79133	  0.016204	  0.016494	  0.024272	
2.8629	  0.015477	  0.017524	  0.024386	
2.93448	  0.015014	  0.018418	  0.024789	
3.00605	  0.014875	  0.019021	  0.025356	
3.07762	  0.014993	  0.019250	  0.026269	
3.14919	  0.015231	  0.019185	  0.027918	
3.22077	  0.015418	  0.019021	  0.029905	
3.29234	  0.015534	  0.018911	  0.031488	
3.36391	  0.015690	  0.018902	  0.032422	
3.43548	  0.015852	  0.019053	  0.032487	
3.50706	  0.015932	  0.019380	  0.031414	
3.57863	  0.016027	  0.019581	  0.029645	
3.6502	  0.016139	  0.019207	  0.028096	
3.72177	  0.016071	  0.018336	  0.027329	
3.79335	  0.015933	  0.017621	  0.027379	
3.86492	  0.016088	  0.017560	  0.027914	
3.93649	  0.016505	  0.018047	  0.028470	
4.00806	  0.016830	  0.018619	  0.028850	
4.07964	  0.016840	  0.018908	  0.029078	
4.15121	  0.016454	  0.018928	  0.029221	
4.22278	  0.015782	  0.018998	  0.029554	
4.29435	  0.015198	  0.019357	  0.030266	
4.36593	  0.015005	  0.019886	  0.030999	
4.4375	  0.015129	  0.020279	  0.031256	
4.50907	  0.015321	  0.020468	  0.030813	
4.58065	  0.015585	  0.020638	  0.029660	
4.65222	  0.016223	  0.020830	  0.028335	
4.72379	  0.017217	  0.020924	  0.027892	
4.79536	  0.017808	  0.021113	  0.029088	
4.86694	  0.017151	  0.021934	  0.031892	
4.93851	  0.015267	  0.023249	  0.034997	
5.01008	  0.013117	  0.023978	  0.036520	
5.08165	  0.012657	  0.024651	  0.037358	
5.15323	  0.017701	  0.029919	  0.042817	
5.2248	  0.033472	  0.046424	  0.058309	
5.29637	  0.061682	  0.076365	  0.082534	
5.36794	  0.093781	  0.112871	  0.105605	
5.43952	  0.115284	  0.145748	  0.117911	
5.51109	  0.123006	  0.173154	  0.121265	
5.58266	  0.128470	  0.199801	  0.124936	
5.65423	  0.140235	  0.224691	  0.132658	
5.72581	  0.157448	  0.241909	  0.140499	
5.79738	  0.179526	  0.251518	  0.144647	
5.86895	  0.206585	  0.261262	  0.146225	
5.94052	  0.233527	  0.277799	  0.148974	
6.0121	  0.253251	  0.301271	  0.155404	
6.08367	  0.263112	  0.328339	  0.165046	
6.15524	  0.264907	  0.352056	  0.173266	
6.22681	  0.262359	  0.361879	  0.173484	
6.29839	  0.260780	  0.354866	  0.164082	
6.36996	  0.263576	  0.339326	  0.151262	
6.44153	  0.266387	  0.322069	  0.142418	
6.5131	  0.261019	  0.303269	  0.138606	
6.58468	  0.247372	  0.284991	  0.135344	
6.65625	  0.235759	  0.274334	  0.129231	
6.72782	  0.235777	  0.275883	  0.122873	
6.7994	  0.246872	  0.287846	  0.122284	
6.87097	  0.262098	  0.306897	  0.128942	
6.94254	  0.278378	  0.331373	  0.138024	
7.01411	  0.300866	  0.359644	  0.145327	
7.08569	  0.336403	  0.388057	  0.151413	
7.15726	  0.379015	  0.411089	  0.157942	
7.22883	  0.409341	  0.424393	  0.164026	
7.3004	  0.417022	  0.427198	  0.167761	
7.37198	  0.411877	  0.422351	  0.168737	
7.44355	  0.407517	  0.414393	  0.167753	
7.51512	  0.405125	  0.404532	  0.165025	
7.58669	  0.396014	  0.389981	  0.159559	
7.65827	  0.373583	  0.370904	  0.150727	
7.72984	  0.341943	  0.351649	  0.140022	
7.80141	  0.316131	  0.335998	  0.131105	
7.87298	  0.311149	  0.327752	  0.127799	
7.94456	  0.327417	  0.330406	  0.130457	
8.01613	  0.349930	  0.341533	  0.135683	
8.0877	  0.361785	  0.353522	  0.140727	
8.15927	  0.355631	  0.363328	  0.144847	
8.23085	  0.337469	  0.377619	  0.147327	
8.30242	  0.322650	  0.402542	  0.147407	
8.37399	  0.322796	  0.431030	  0.145144	
8.44556	  0.338728	  0.448833	  0.141934	
8.51714	  0.364972	  0.449970	  0.139707	
8.58871	  0.392504	  0.440737	  0.139119	
8.66028	  0.412448	  0.434352	  0.139962	
8.73185	  0.420769	  0.439629	  0.142528	
8.80343	  0.417625	  0.450789	  0.147099	
8.875	  0.410344	  0.460043	  0.152108	
8.94657	  0.411701	  0.472031	  0.153947	
9.01815	  0.423357	  0.484601	  0.150588	
9.08972	  0.430519	  0.476189	  0.143981	
9.16129	  0.419685	  0.434802	  0.136882	
9.23286	  0.389687	  0.376395	  0.129401	
9.30444	  0.345192	  0.322824	  0.120033	
9.37601	  0.296542	  0.283922	  0.109614	
9.44758	  0.263046	  0.263157	  0.102509	
9.51915	  0.259585	  0.261108	  0.102481	
9.59073	  0.283497	  0.274684	  0.109639	
9.6623	  0.321774	  0.303351	  0.121400	
9.73387	  0.362962	  0.347992	  0.134086	
9.80544	  0.398561	  0.397996	  0.144824	
9.87702	  0.424555	  0.434375	  0.153287	
9.94859	  0.445075	  0.451691	  0.161572	
10.0202	  0.466242	  0.461644	  0.171916	
10.0917	  0.488435	  0.472572	  0.183136	
10.1633	  0.504886	  0.478492	  0.189953	
10.2349	  0.504781	  0.469231	  0.188214	
10.3065	  0.483233	  0.443195	  0.179902	
10.378	  0.445560	  0.408364	  0.170309	
10.4496	  0.399170	  0.372967	  0.161311	
10.5212	  0.347158	  0.336297	  0.150315	
10.5927	  0.289878	  0.291749	  0.135299	
10.6643	  0.229947	  0.237787	  0.117413	
10.7359	  0.173421	  0.179892	  0.098535	
10.8075	  0.125597	  0.124778	  0.080225	
10.879	  0.087801	  0.078492	  0.064855	
10.9506	  0.058832	  0.046819	  0.054329	
11.0222	  0.038288	  0.032125	  0.048007	
11.0937	  0.026569	  0.030149	  0.043300	
11.1653	  0.022209	  0.033049	  0.038297	
11.2369	  0.021703	  0.035395	  0.033285	
11.3085	  0.021789	  0.035803	  0.029209	
11.38	  0.021068	  0.034748	  0.025888	
11.4516	  0.019822	  0.032994	  0.022625	
11.5232	  0.018897	  0.031028	  0.019329	
11.5948	  0.018995	  0.028759	  0.016632	
11.6663	  0.020250	  0.026229	  0.015304	
11.7379	  0.021819	  0.024087	  0.014959	
11.8095	  0.022233	  0.022483	  0.013986	
11.881	  0.020530	  0.020534	  0.011590	
11.9526	  0.017159	  0.017739	  0.008392	
